#!OML:ASF X:\für Bonn\!DataBase\2005_08_12_Daniel\c3d\Daniel.ASF
:FULLY-SPECIFIED
:DEGREES
46
root 1.40437 17.4784 -16.1881 348.214 0.137326 -3.1724
lowerback 18.1214 -0.0585976 4.80189
upperback 9.05685 0.642284 -1.68108
thorax -0.335126 0.520568 -4.61829
lowerneck 10.223 0.362599 -0.804219
upperneck 32.7563 0.474479 0.397331
head 8.68219 0.162264 0.297151
rclavicle 3.97569e-016 -3.18055e-015
rhumerus 170.403 -160.406 -266.988
rradius 15.6287
rwrist 29.953
rhand -21.9172 16.8221
rfingers 7.12502
rthumb 4.48874 -13.1104
lclavicle 3.97569e-016 -3.18055e-015
lhumerus -25.6235 25.5599 81.0796
lradius 26.1541
lwrist -22.3829
lhand -8.89827 -6.26612
lfingers 7.12502
lthumb 17.0444 23.0062
rfemur 2.82291 1.27157 18.9302
rtibia 34.4448
rfoot -14.6432 7.157
rtoes -11.9832
lfemur -10.2731 -10.3206 -16.6961
ltibia 38.4689
lfoot -15.6023 2.32145
ltoes -9.73277
47
root 1.4355 17.4819 -16.1206 348.153 -0.127048 -3.03507
lowerback 18.0273 -0.0448585 4.6217
upperback 9.07485 0.623258 -1.80379
thorax -0.271748 0.509567 -4.64124
lowerneck 10.3741 0.479801 -0.901499
upperneck 32.7712 0.621129 0.41829
head 8.66254 0.217741 0.325973
rclavicle -1.13307e-014 1.43125e-014
rhumerus 170.596 -160.609 -267.521
rradius 15.5635
rwrist 29.9618
rhand -22.1147 16.6898
rfingers 7.12502
rthumb 4.29805 -13.2466
lclavicle -1.13307e-014 1.43125e-014
lhumerus -25.6436 25.8218 80.6801
lradius 25.755
lwrist -22.868
lhand -8.76578 -6.30936
lfingers 7.12502
lthumb 17.1719 22.9519
rfemur 2.6523 1.0467 18.4855
rtibia 34.8182
rfoot -14.5988 7.33017
rtoes -12.3667
lfemur -9.85506 -10.0866 -16.9541
ltibia 38.4405
lfoot -15.857 2.37776
ltoes -9.2404
48
root 1.46601 17.4832 -16.0543 348.107 -0.372774 -2.89705
lowerback 17.9113 -0.0331954 4.46397
upperback 9.09915 0.604691 -1.93017
thorax -0.189481 0.50025 -4.68061
lowerneck 10.4955 0.593143 -1.02593
upperneck 32.7828 0.758916 0.452799
head 8.64615 0.267236 0.36388
rclavicle -1.72943e-014 7.95139e-016
rhumerus 170.762 -160.854 -268.029
rradius 15.5104
rwrist 29.9738
rhand -22.295 16.5623
rfingers 7.12502
rthumb 4.12395 -13.3775
lclavicle -1.72943e-014 7.95139e-016
lhumerus -25.6637 26.0432 80.2736
lradius 25.3945
lwrist -23.3201
lhand -8.64322 -6.37397
lfingers 7.12502
lthumb 17.2898 22.8769
rfemur 2.54162 0.944684 18.0866
rtibia 35.0247
rfoot -14.6496 7.28659
rtoes -12.6887
lfemur -9.44556 -9.85478 -17.2157
ltibia 38.3754
lfoot -16.0817 2.43996
ltoes -8.82057
49
root 1.49579 17.4899 -15.9899 348.098 -0.615752 -2.75954
lowerback 17.796 -0.0215972 4.32275
upperback 9.09472 0.589051 -2.07509
thorax -0.137259 0.491876 -4.75001
lowerneck 10.6421 0.698775 -1.09337
upperneck 32.7995 0.88741 0.484358
head 8.62784 0.318488 0.390164
rclavicle -8.74653e-015 -7.95139e-016
rhumerus 170.865 -160.972 -268.55
rradius 15.4598
rwrist 30.1592
rhand -22.568 16.5032
rfingers 7.12502
rthumb 3.8603 -13.4415
lclavicle -8.74653e-015 -7.95139e-016
lhumerus -25.6826 26.186 79.8474
lradius 25.0509
lwrist -23.6709
lhand -8.50406 -6.38167
lfingers 7.12502
lthumb 17.4238 22.8574
rfemur 2.46482 1.00533 17.7489
rtibia 35.0444
rfoot -14.7713 6.98863
rtoes -12.9883
lfemur -9.06378 -9.64641 -17.4698
ltibia 38.2758
lfoot -16.2993 2.51678
ltoes -8.4614
50
root 1.52481 17.4989 -15.9271 348.107 -0.842084 -2.64139
lowerback 17.6674 -0.0198041 4.18494
upperback 9.08707 0.561894 -2.18721
thorax -0.0834703 0.476932 -4.78412
lowerneck 10.815 0.825092 -1.25304
upperneck 32.7691 1.03708 0.531507
head 8.5871 0.370781 0.438251
rclavicle 1.35174e-014 -2.22639e-014
rhumerus 170.988 -160.811 -268.994
rradius 15.3332
rwrist 30.796
rhand -22.8573 16.5896
rfingers 7.12502
rthumb 3.58087 -13.3601
lclavicle 1.35174e-014 -2.22639e-014
lhumerus -25.7325 26.4555 79.432
lradius 24.7151
lwrist -24.0743
lhand -8.52888 -6.45637
lfingers 7.12502
lthumb 17.3999 22.7848
rfemur 2.43373 1.1804 17.488
rtibia 34.9048
rfoot -15.0479 6.39919
rtoes -13.5157
lfemur -8.69349 -9.45959 -17.7058
ltibia 38.1404
lfoot -16.5085 2.59703
ltoes -8.24468
51
root 1.55276 17.5084 -15.8661 348.118 -1.05602 -2.53659
lowerback 17.5459 -0.0202877 4.07412
upperback 9.09163 0.536495 -2.30603
thorax -0.0190427 0.464513 -4.84122
lowerneck 10.9205 0.94053 -1.37276
upperneck 32.7684 1.17673 0.567
head 8.56821 0.422021 0.475226
rclavicle 1.25234e-014 -1.35174e-014
rhumerus 171.11 -160.709 -269.447
rradius 15.2128
rwrist 31.3947
rhand -23.1498 16.703
rfingers 7.12502
rthumb 3.2984 -13.2513
lclavicle 1.25234e-014 -1.35174e-014
lhumerus -25.7439 26.6223 79.041
lradius 24.4265
lwrist -24.4118
lhand -8.52839 -6.44551
lfingers 7.12502
lthumb 17.4004 22.7957
rfemur 2.4505 1.40346 17.2691
rtibia 34.6299
rfoot -15.4281 5.68064
rtoes -14.2604
lfemur -8.32255 -9.2719 -17.923
ltibia 37.9839
lfoot -16.7474 2.67729
ltoes -8.27183
52
root 1.57912 17.5158 -15.8076 348.149 -1.25568 -2.43036
lowerback 17.4372 -0.0168024 3.95966
upperback 9.08243 0.516949 -2.4147
thorax 0.0243718 0.453802 -4.88675
lowerneck 11.0575 1.05392 -1.53142
upperneck 32.7178 1.30565 0.626541
head 8.5253 0.466276 0.526375
rclavicle -3.57812e-015 1.19271e-014
rhumerus 171.251 -160.336 -269.857
rradius 14.9956
rwrist 32.2769
rhand -23.5215 16.9406
rfingers 7.12502
rthumb 2.93947 -13.0189
lclavicle -3.57812e-015 1.19271e-014
lhumerus -25.77 26.7754 78.6666
lradius 24.1568
lwrist -24.663
lhand -8.6403 -6.42232
lfingers 7.12502
lthumb 17.2927 22.8283
rfemur 2.46642 1.68196 17.0669
rtibia 34.2544
rfoot -15.845 4.88334
rtoes -14.9127
lfemur -7.97021 -9.07389 -18.1293
ltibia 37.7995
lfoot -16.9624 2.73603
ltoes -8.37502
53
root 1.60533 17.5235 -15.7524 348.186 -1.44154 -2.34424
lowerback 17.3311 -0.023006 3.86504
upperback 9.09108 0.488413 -2.50825
thorax 0.0848921 0.439693 -4.92592
lowerneck 11.1708 1.13986 -1.59175
upperneck 32.6593 1.42136 0.596038
head 8.48473 0.508976 0.528584
rclavicle -3.39922e-014 1.27222e-014
rhumerus 171.437 -159.908 -270.234
rradius 14.7343
rwrist 33.3075
rhand -23.8831 17.1932
rfingers 7.12502
rthumb 2.5903 -12.7708
lclavicle -3.39922e-014 1.27222e-014
lhumerus -25.7413 26.9316 78.35
lradius 23.9105
lwrist -24.8919
lhand -8.82104 -6.35619
lfingers 7.12502
lthumb 17.1187 22.9097
rfemur 2.47777 1.98144 16.8995
rtibia 33.793
rfoot -16.2501 4.09325
rtoes -15.1986
lfemur -7.64601 -8.92156 -18.3239
ltibia 37.6058
lfoot -17.1634 2.82046
ltoes -8.53719
54
root 1.62926 17.5336 -15.6991 348.239 -1.61582 -2.25636
lowerback 17.2626 -0.0282737 3.7405
upperback 9.0643 0.458433 -2.58541
thorax 0.086749 0.421123 -4.93109
lowerneck 11.3267 1.19117 -1.50613
upperneck 32.61 1.52357 0.439308
head 8.44358 0.552544 0.460806
rclavicle 1.15295e-014 -2.8625e-014
rhumerus 171.559 -159.4 -270.558
rradius 14.4861
rwrist 34.415
rhand -24.1031 17.5275
rfingers 7.12502
rthumb 2.37774 -12.439
lclavicle 1.15295e-014 -2.8625e-014
lhumerus -25.7942 27.1708 77.9967
lradius 23.707
lwrist -25.1563
lhand -8.97494 -6.34459
lfingers 7.12502
lthumb 16.9706 22.934
rfemur 2.46892 2.32436 16.7587
rtibia 33.2336
rfoot -16.5999 3.29276
rtoes -15.2021
lfemur -7.31346 -8.8237 -18.5171
ltibia 37.368
lfoot -17.3396 2.94712
ltoes -8.57892
55
root 1.65342 17.5447 -15.6498 348.301 -1.76468 -2.18752
lowerback 17.2056 -0.0320684 3.65326
upperback 9.06269 0.436848 -2.64779
thorax 0.11133 0.408904 -4.94328
lowerneck 11.4418 1.22995 -1.46401
upperneck 32.5135 1.60269 0.306779
head 8.39119 0.583328 0.408385
rclavicle -8.34896e-015 1.03368e-014
rhumerus 171.724 -158.958 -270.853
rradius 14.2252
rwrist 35.4171
rhand -24.3241 17.8377
rfingers 7.12502
rthumb 2.16431 -12.1311
lclavicle -8.34896e-015 1.03368e-014
lhumerus -25.7857 27.2597 77.7489
lradius 23.5994
lwrist -25.2725
lhand -9.12461 -6.27629
lfingers 7.12502
lthumb 16.8265 23.0147
rfemur 2.41787 2.68138 16.6488
rtibia 32.5817
rfoot -16.8564 2.56916
rtoes -14.9009
lfemur -7.00859 -8.7646 -18.6999
ltibia 37.123
lfoot -17.5023 3.08239
ltoes -8.74013
56
root 1.67512 17.5571 -15.6031 348.386 -1.89383 -2.10092
lowerback 17.1352 -0.0304116 3.51681
upperback 9.06925 0.41543 -2.69522
thorax 0.150406 0.395186 -4.91107
lowerneck 11.523 1.27861 -1.47756
upperneck 32.4191 1.68848 0.19786
head 8.34441 0.613049 0.374371
rclavicle -1.25234e-014 5.56597e-015
rhumerus 171.943 -158.416 -271.126
rradius 13.9254
rwrist 36.5247
rhand -24.4735 18.076
rfingers 7.12502
rthumb 2.02009 -11.8942
lclavicle -1.25234e-014 5.56597e-015
lhumerus -25.7555 27.4972 77.518
lradius 23.4799
lwrist -25.5255
lhand -9.28713 -6.2381
lfingers 7.12502
lthumb 16.67 23.0661
rfemur 2.33475 3.07057 16.5336
rtibia 31.8361
rfoot -17.0307 1.9793
rtoes -14.4403
lfemur -6.71706 -8.75853 -18.9029
ltibia 36.8485
lfoot -17.6503 3.26992
ltoes -8.83247
57
root 1.69645 17.5655 -15.5599 348.457 -1.99497 -2.03089
lowerback 17.1075 -0.0280161 3.39054
upperback 9.07104 0.398359 -2.71633
thorax 0.162621 0.382654 -4.858
lowerneck 11.6443 1.31015 -1.48736
upperneck 32.3049 1.75648 0.0633156
head 8.28486 0.633866 0.330013
rclavicle -1.19271e-014 1.74931e-014
rhumerus 172.1 -158.167 -271.352
rradius 13.6811
rwrist 37.2725
rhand -24.5717 18.2416
rfingers 7.12502
rthumb 1.9252 -11.7295
lclavicle -1.19271e-014 1.74931e-014
lhumerus -25.7397 27.6975 77.3602
lradius 23.4587
lwrist -25.703
lhand -9.43152 -6.17927
lfingers 7.12502
lthumb 16.531 23.1366
rfemur 2.26625 3.46217 16.4452
rtibia 31.0143
rfoot -17.0814 1.50026
rtoes -13.9903
lfemur -6.45117 -8.78704 -19.093
ltibia 36.593
lfoot -17.7294 3.44374
ltoes -8.83582
58
root 1.7154 17.5743 -15.5182 348.548 -2.08992 -1.95753
lowerback 17.0472 -0.0242662 3.24979
upperback 9.0961 0.380488 -2.73691
thorax 0.216398 0.370589 -4.79535
lowerneck 11.7124 1.34454 -1.53372
upperneck 32.1826 1.82456 -0.0580227
head 8.23032 0.651835 0.297016
rclavicle 2.78299e-015 -2.78299e-014
rhumerus 172.311 -157.764 -271.58
rradius 13.4415
rwrist 38.2507
rhand -24.6065 18.363
rfingers 7.12502
rthumb 1.89158 -11.6084
lclavicle 2.78299e-015 -2.78299e-014
lhumerus -25.6305 27.9196 77.2389
lradius 23.4467
lwrist -25.8284
lhand -9.54168 -6.09077
lfingers 7.12502
lthumb 16.425 23.2339
rfemur 2.1721 3.88653 16.367
rtibia 30.13
rfoot -17.0588 1.1025
rtoes -13.784
lfemur -6.20651 -8.84498 -19.2818
ltibia 36.3266
lfoot -17.8171 3.6552
ltoes -8.76943
